#!OML:ASF E:\Steps\Project 1\Capture day 1\Session 2\Subject.ASF
:FULLY-SPECIFIED
:DEGREES
390
root 3.32394 17.9632 8.5254 -154.124 2.96047 176.134
lowerback -21.7541 -2.78153 -5.36921
upperback 1.73468 -2.20849 0.207026
thorax 14.5188 -1.39926 2.5687
lowerneck -3.0731 -0.588634 -1.98975
upperneck 16.3429 -0.21316 2.46417
head 5.42754 0.246072 1.11795
rclavicle 5.2181e-016 -2.85256e-014
rhumerus -41.0839 -12.769 -77.8937
rradius 44.1391
rwrist -6.42491
rhand -4.71591 -52.0951
rfingers 7.12502
rthumb 21.0664 -440.971
lclavicle 5.2181e-016 -2.85256e-014
lhumerus -30.4368 -4.68416 81.1507
lradius 26.6422
lwrist -0.427303
lhand -18.4027 -11.1352
lfingers 7.12502
lthumb 7.8817 18.6979
rfemur -34.1071 11.2294 14.2162
rtibia 20.9605
rfoot -22.3435 -3.36506
rtoes -29.2515
lfemur -30.8121 -4.90469 -27.66
ltibia 19.3381
lfoot -11.7151 0.981724
ltoes -21.7247
391
root 3.32436 17.967 8.48454 -154.408 3.05907 176.369
lowerback -21.9662 -2.64101 -5.09497
upperback 1.77047 -2.08192 0.203217
thorax 14.6604 -1.32357 2.44576
lowerneck -3.11558 -0.588902 -2.05056
upperneck 16.0652 -0.248862 2.55256
head 5.34928 0.219077 1.15084
rclavicle 6.95746e-015 7.10655e-015
rhumerus -41.0561 -12.7434 -78.052
rradius 44.0579
rwrist -6.53753
rhand -4.94063 -52.3625
rfingers 7.12502
rthumb 20.8505 -441.262
lclavicle 6.95746e-015 7.10655e-015
lhumerus -30.3722 -4.24157 81.0005
lradius 26.3724
lwrist -0.831884
lhand -18.3937 -11.4476
lfingers 7.12502
lthumb 7.89032 18.3852
rfemur -33.3755 11.3871 14.5465
rtibia 20.4593
rfoot -22.1984 -3.17004
rtoes -28.8253
lfemur -30.0628 -4.80788 -27.4244
ltibia 18.7718
lfoot -11.6367 1.21648
ltoes -22.4694
392
root 3.32877 17.9686 8.45741 -154.514 3.09207 176.432
lowerback -22.183 -2.63042 -5.0841
upperback 1.65669 -2.05159 0.208641
thorax 14.6486 -1.3027 2.45439
lowerneck -3.02799 -0.623287 -2.03221
upperneck 15.9234 -0.294997 2.47409
head 5.29142 0.188532 1.11938
rclavicle -1.16662e-014 1.32689e-014
rhumerus -41.2338 -12.5367 -78.1841
rradius 44.0167
rwrist -6.59677
rhand -4.90518 -52.5168
rfingers 7.12502
rthumb 20.8845 -441.413
lclavicle -1.16662e-014 1.32689e-014
lhumerus -30.4933 -3.88881 80.8864
lradius 26.2513
lwrist -0.977744
lhand -18.2916 -11.5058
lfingers 7.12502
lthumb 7.98888 18.3232
rfemur -32.9328 11.4623 14.6542
rtibia 20.0148
rfoot -21.9586 -3.16696
rtoes -28.9948
lfemur -29.6667 -4.86103 -27.3121
ltibia 18.4281
lfoot -11.585 1.37374
ltoes -22.735
393
root 3.33402 17.9682 8.43877 -154.499 3.01954 176.383
lowerback -22.4588 -2.75595 -5.21334
upperback 1.43314 -2.15897 0.250186
thorax 14.5608 -1.34958 2.53775
lowerneck -2.78558 -0.677335 -1.98555
upperneck 16.0178 -0.318924 2.23738
head 5.28006 0.172653 1.03758
rclavicle -4.09993e-016 6.06293e-015
rhumerus -41.5043 -12.1857 -78.2056
rradius 43.8734
rwrist -6.62093
rhand -4.5587 -52.5924
rfingers 7.12502
rthumb 21.2174 -441.451
lclavicle -4.09993e-016 6.06293e-015
lhumerus -30.7392 -3.5446 80.8318
lradius 26.0924
lwrist -1.05098
lhand -18.2876 -11.3079
lfingers 7.12502
lthumb 7.99278 18.5209
rfemur -32.5608 11.2362 14.6917
rtibia 19.4006
rfoot -21.668 -2.98608
rtoes -28.7173
lfemur -29.5026 -5.00224 -27.3023
ltibia 18.286
lfoot -11.6265 1.30977
ltoes -21.6231
394
root 3.3356 17.9693 8.42072 -154.456 2.90165 176.352
lowerback -22.6807 -2.69398 -5.22872
upperback 1.41517 -2.04263 0.181328
thorax 14.6554 -1.29296 2.50434
lowerneck -3.15233 -0.788438 -1.80531
upperneck 15.7005 -0.532741 2.24341
head 5.24805 0.0596118 0.99461
rclavicle 2.23633e-014 1.89839e-014
rhumerus -41.2531 -12.5182 -78.2624
rradius 43.5382
rwrist -6.53671
rhand -4.47675 -52.7557
rfingers 7.12502
rthumb 21.2961 -441.606
lclavicle 2.23633e-014 1.89839e-014
lhumerus -30.3311 -3.76396 80.8675
lradius 25.9125
lwrist -0.986692
lhand -18.4373 -10.6182
lfingers 7.12502
lthumb 7.84831 19.2162
rfemur -32.1894 10.8939 14.7718
rtibia 18.7669
rfoot -21.4575 -2.65613
rtoes -28.2954
lfemur -29.3837 -5.10999 -27.31
ltibia 18.122
lfoot -11.5854 1.23303
ltoes -21.4309
395
root 3.33552 17.9712 8.39903 -154.401 2.82479 176.236
lowerback -22.9275 -2.70276 -5.33861
upperback 1.35735 -1.99525 0.14754
thorax 14.7291 -1.2744 2.54161
lowerneck -3.38037 -0.77452 -1.81518
upperneck 15.2113 -0.568563 2.26105
head 5.1361 0.0192372 0.995268
rclavicle 3.13086e-015 -3.97569e-015
rhumerus -40.9458 -12.6744 -78.2437
rradius 42.9962
rwrist -6.27684
rhand -4.45103 -52.6004
rfingers 7.12502
rthumb 21.3208 -441.448
lclavicle 3.13086e-015 -3.97569e-015
lhumerus -30.1466 -3.64363 80.9365
lradius 25.8497
lwrist -1.08428
lhand -18.8495 -10.1088
lfingers 7.12502
lthumb 7.45043 19.74
rfemur -31.9757 10.5797 14.732
rtibia 18.4678
rfoot -21.4586 -2.4304
rtoes -28.1426
lfemur -29.2176 -5.27073 -27.4247
ltibia 17.8353
lfoot -11.4617 1.21906
ltoes -21.5379
396
root 3.33673 17.9711 8.37549 -154.36 2.77421 176.21
lowerback -23.2133 -2.69454 -5.3803
upperback 1.31914 -1.94337 0.122637
thorax 14.8453 -1.25068 2.55069
lowerneck -3.66327 -0.80766 -1.62885
upperneck 15.0059 -0.629809 2.04191
head 5.12089 -0.0272864 0.890704
rclavicle 3.42904e-015 -5.26779e-015
rhumerus -40.6684 -12.8956 -78.2293
rradius 42.4471
rwrist -5.9973
rhand -4.37453 -52.3541
rfingers 7.12502
rthumb 21.3943 -441.193
lclavicle 3.42904e-015 -5.26779e-015
lhumerus -29.9613 -3.41681 80.9102
lradius 25.7081
lwrist -1.29064
lhand -19.3487 -10.4556
lfingers 7.12502
lthumb 6.96856 19.4097
rfemur -31.769 10.4299 14.7577
rtibia 18.245
rfoot -21.5054 -2.28542
rtoes -27.7469
lfemur -28.9999 -5.39708 -27.4262
ltibia 17.5338
lfoot -11.4419 1.21446
ltoes -21.1091
